<svg width="88" height="36" viewBox="0 0 88 36" fill="none" xmlns="http://www.w3.org/2000/svg">
<path d="M39.2098 0.00172501H33.0748C32.9874 0.00194692 32.9017 0.0256363 32.8265 0.0703171C32.7514 0.114998 32.6897 0.17903 32.6478 0.255725L25.0508 17.1377C25.0096 17.215 24.948 17.2795 24.8727 17.3243C24.7974 17.369 24.7114 17.3924 24.6238 17.3917C24.5364 17.3915 24.4507 17.3678 24.3755 17.3231C24.3004 17.2785 24.2387 17.2144 24.1968 17.1377L16.6848 0.255725C16.6436 0.178613 16.5822 0.114202 16.5071 0.0694397C16.4321 0.0246776 16.3462 0.00126435 16.2588 0.00172501H11.6138L22.8998 25.2857C22.9287 25.3602 22.9779 25.425 23.042 25.4728C23.106 25.5205 23.1822 25.5493 23.2618 25.5557H25.9518C26.0438 25.5553 26.1338 25.5288 26.2114 25.4792C26.2889 25.4296 26.3508 25.3591 26.3898 25.2757L31.7478 14.9177C31.798 14.822 31.879 14.7461 31.9777 14.7022C32.0765 14.6583 32.1871 14.6489 32.2918 14.6757C32.3957 14.7017 32.4881 14.7614 32.5543 14.8456C32.6206 14.9298 32.657 15.0336 32.6578 15.1407V27.7937C32.6577 27.8886 32.6861 27.9813 32.7392 28.0599C32.7923 28.1385 32.8678 28.1994 32.9558 28.2347C33.0145 28.259 33.0773 28.2716 33.1408 28.2717H39.2108C39.3388 28.2717 39.4618 28.2217 39.5528 28.1317C39.5974 28.0875 39.6329 28.0348 39.6571 27.9768C39.6813 27.9188 39.6938 27.8566 39.6938 27.7937V0.479726C39.6942 0.384518 39.6659 0.291393 39.6126 0.212533C39.5592 0.133673 39.4833 0.0727473 39.3948 0.0377243C39.336 0.0138171 39.2732 0.00158975 39.2098 0.00172501ZM83.0018 28.2717C83.7048 28.2717 84.2748 27.7067 84.2748 27.0117C84.2748 26.3157 83.7048 25.7517 83.0018 25.7517C82.2988 25.7517 81.7288 26.3157 81.7288 27.0117C81.7288 27.7067 82.2988 28.2717 83.0018 28.2717ZM86.7278 28.2717C87.4308 28.2717 88.0008 27.7067 88.0008 27.0117C88.0008 26.3157 87.4308 25.7517 86.7278 25.7517C86.0248 25.7517 85.4548 26.3157 85.4548 27.0117C85.4548 27.7067 86.0248 28.2717 86.7278 28.2717ZM79.2768 28.2717C79.9798 28.2717 80.5498 27.7067 80.5498 27.0117C80.5498 26.3157 79.9798 25.7517 79.2768 25.7517C78.5738 25.7517 78.0038 26.3157 78.0038 27.0117C78.0038 27.7067 78.5738 28.2717 79.2768 28.2717ZM20.4208 27.5497L9.02479 0.559726C8.98943 0.475739 8.93165 0.403091 8.85779 0.349725C8.85175 0.345502 8.8448 0.342758 8.8375 0.341716C8.83021 0.340673 8.82277 0.341361 8.81579 0.343724C8.80879 0.346022 8.80242 0.349936 8.79721 0.355147C8.792 0.360359 8.78809 0.366722 8.78579 0.373725L5.89279 9.02372C5.84818 9.15744 5.85207 9.30259 5.90379 9.43372L8.37379 15.6877C8.82624 16.7384 9.43218 17.716 10.1718 18.5887C9.81279 18.1857 8.89979 17.3267 7.52879 17.2187H5.51379C5.24306 17.218 4.97265 17.2374 4.70479 17.2767C3.66071 17.4248 2.67897 17.8623 1.87079 18.5397C1.06598 19.2138 0.468585 20.1021 0.147788 21.1017L0.0577874 21.3917C-0.00391218 21.5962 -0.0164159 21.8125 0.0212941 22.0227C0.0590041 22.233 0.145862 22.4314 0.274788 22.6017C0.404202 22.7735 0.571947 22.9127 0.764658 23.0082C0.95737 23.1037 1.16972 23.1528 1.38479 23.1517H10.6498C10.8401 23.1519 11.026 23.2092 11.1834 23.3161C11.3408 23.4231 11.4625 23.5748 11.5328 23.7517L13.1578 27.9267C13.1948 28.0226 13.2602 28.1049 13.3453 28.1626C13.4304 28.2203 13.531 28.2507 13.6338 28.2497H19.9538C20.0374 28.2494 20.1196 28.2286 20.1933 28.1892C20.267 28.1498 20.33 28.093 20.3768 28.0237C20.4229 27.9546 20.451 27.875 20.4587 27.7923C20.4664 27.7095 20.4533 27.6262 20.4208 27.5497ZM3.54979 22.1017H3.51579C3.29338 22.0932 3.08103 22.0068 2.91579 21.8577C2.75143 21.7097 2.64509 21.508 2.61579 21.2887C2.6073 21.2268 2.60329 21.1643 2.60379 21.1017C2.60379 20.4077 3.13179 19.8457 3.78379 19.8457C3.97279 19.8457 4.15779 19.8927 4.32279 19.9837C4.44479 20.0497 4.54279 20.1527 4.60279 20.2767C4.67779 20.4377 4.72079 20.6117 4.72779 20.7887V20.8447C4.73079 21.5357 4.20179 22.1017 3.54979 22.1017ZM8.72779 21.2877C8.69871 21.5073 8.59235 21.7094 8.42779 21.8577C8.2624 22.0065 8.05007 22.0925 7.82779 22.1007H7.79479C7.14279 22.1007 6.61379 21.5387 6.61379 20.8447V20.7887C6.62079 20.6117 6.66379 20.4377 6.73979 20.2767C6.79997 20.152 6.89795 20.0495 7.01979 19.9837C7.18379 19.8937 7.36979 19.8457 7.55779 19.8457C8.20979 19.8457 8.73879 20.4087 8.73879 21.1017C8.73879 21.1627 8.73579 21.2237 8.72879 21.2847V21.2877H8.72779ZM64.8658 27.7797C64.8718 27.8167 64.8918 27.8497 64.9208 27.8737C64.9498 27.8976 64.9862 27.9107 65.0238 27.9107H66.5498L66.7818 27.7857C68.9458 26.7097 70.5048 25.1887 71.4018 23.4177C71.8058 22.6137 72.0148 21.7277 72.0138 20.8297L72.0268 0.479726C72.0274 0.384749 71.9994 0.291792 71.9464 0.212958C71.8934 0.134124 71.8179 0.0730632 71.7298 0.0377243C71.6711 0.0137924 71.6082 0.00156411 71.5448 0.00172501H65.3608C65.2734 0.00194692 65.1877 0.0256363 65.1125 0.0703171C65.0374 0.114998 64.9757 0.17903 64.9338 0.255725L57.3838 17.1377C57.3424 17.2151 57.2806 17.2796 57.2052 17.3244C57.1298 17.3692 57.0435 17.3924 56.9558 17.3917C56.8684 17.3915 56.7827 17.3678 56.7075 17.3231C56.6324 17.2785 56.5707 17.2144 56.5288 17.1377L49.5688 0.255725C49.5274 0.178383 49.4656 0.113836 49.3902 0.0690659C49.3148 0.024296 49.2285 0.00100911 49.1408 0.00172501H42.8608C42.766 0.00235019 42.6734 0.0305829 42.5944 0.0829723C42.5153 0.135362 42.4533 0.209639 42.4158 0.296725C42.3914 0.354645 42.3788 0.416868 42.3788 0.479726V27.7957C42.3784 27.8588 42.3907 27.9213 42.4149 27.9795C42.4391 28.0378 42.4748 28.0905 42.5198 28.1347C42.6104 28.2247 42.7331 28.2751 42.8608 28.2747H48.9768C49.1058 28.2747 49.2278 28.2247 49.3188 28.1347C49.3636 28.0904 49.3991 28.0376 49.4233 27.9794C49.4475 27.9212 49.4599 27.8587 49.4598 27.7957V15.0587C49.4595 14.9513 49.4956 14.8469 49.5622 14.7626C49.6289 14.6783 49.7221 14.6192 49.8268 14.5947C49.9313 14.5694 50.0413 14.5795 50.1395 14.6233C50.2377 14.667 50.3187 14.7421 50.3698 14.8367L55.1888 25.2667C55.1998 25.2968 55.2146 25.3254 55.2328 25.3517C55.2773 25.4154 55.3366 25.4673 55.4055 25.503C55.4745 25.5387 55.5511 25.5571 55.6288 25.5567H58.2848C58.368 25.5567 58.4499 25.5354 58.5225 25.4948C58.5952 25.4542 58.6562 25.3956 58.6998 25.3247C58.7084 25.3096 58.7161 25.2939 58.7228 25.2777L63.9548 14.9197C64.005 14.824 64.086 14.7481 64.1847 14.7042C64.2835 14.6603 64.3941 14.6509 64.4988 14.6777C64.6027 14.7037 64.6951 14.7634 64.7613 14.8476C64.8276 14.9318 64.864 15.0356 64.8648 15.1427L64.8658 27.7797ZM68.9128 33.5417C68.8824 33.5164 68.8463 33.4988 68.8077 33.4904C68.769 33.4821 68.7289 33.4832 68.6908 33.4937C68.437 33.562 68.1782 33.6098 67.9168 33.6367C67.1648 33.7127 66.4338 33.6167 65.8598 33.3667C65.8012 33.3416 65.7502 33.3017 65.7118 33.2508C65.6733 33.2 65.6489 33.1399 65.6408 33.0767C65.6337 33.0131 65.6432 32.9488 65.6682 32.89C65.6933 32.8311 65.7331 32.7797 65.7838 32.7407C66.3958 32.2577 66.8088 31.6587 66.8908 31.1387C66.8929 31.1259 66.8914 31.1128 66.8862 31.1009C66.8811 31.089 66.8726 31.0789 66.8618 31.0717C66.852 31.0638 66.8402 31.0587 66.8277 31.0569C66.8152 31.0552 66.8024 31.0568 66.7908 31.0617C66.3608 31.2617 65.8978 31.3787 65.4238 31.4077H65.4058C65.3267 31.4111 65.2485 31.3903 65.1815 31.3481C65.1145 31.306 65.062 31.2445 65.0308 31.1717C65.0017 31.1017 64.9931 31.0248 65.0061 30.9501C65.019 30.8754 65.0529 30.8059 65.1038 30.7497C65.3451 30.4855 65.528 30.1734 65.6408 29.8337C65.6588 29.7737 65.6808 29.7077 65.7038 29.6387L65.7358 29.5447C65.3898 29.7167 65.0328 29.8747 64.6748 30.0267L64.5218 30.0907C64.2958 30.1847 64.0658 30.2737 63.8358 30.3567C63.2128 30.6567 62.6588 31.0797 62.2088 31.6007C62.1966 31.6153 62.1896 31.6335 62.1889 31.6525C62.1882 31.6715 62.1938 31.6902 62.2048 31.7057C62.2159 31.7215 62.2319 31.7332 62.2504 31.739C62.2688 31.7448 62.2886 31.7443 62.3068 31.7377C62.8103 31.5552 63.336 31.4405 63.8698 31.3967C63.9234 31.3928 63.9769 31.4055 64.0231 31.4331C64.0692 31.4606 64.1058 31.5017 64.1278 31.5507C64.1419 31.5832 64.149 31.6183 64.1488 31.6537V31.6987C63.5318 32.9037 62.3878 33.8547 61.0088 34.3067C60.5368 34.4607 60.0468 34.5567 59.5508 34.5907L59.4348 34.5977C59.4121 34.5989 59.3903 34.6073 59.3727 34.6217C59.3551 34.6361 59.3425 34.6557 59.3368 34.6777C59.3312 34.6999 59.3331 34.7232 59.3422 34.7442C59.3512 34.7651 59.3669 34.7826 59.3868 34.7937H59.3898C59.9367 35.1095 60.5347 35.3268 61.1568 35.4357C61.4878 35.4927 61.8238 35.5217 62.1598 35.5237C62.8498 35.5307 64.2868 35.5447 65.4728 34.5817L65.6378 34.4477C65.6595 34.4303 65.6852 34.4186 65.7126 34.4137C65.7401 34.4087 65.7682 34.4107 65.7947 34.4195C65.8211 34.4282 65.8449 34.4434 65.864 34.4637C65.883 34.484 65.8967 34.5088 65.9038 34.5357C65.9127 34.5715 65.9092 34.6092 65.8938 34.6427L65.8038 34.8347C65.64 35.1739 65.4307 35.4891 65.1818 35.7717C65.1671 35.7872 65.1564 35.806 65.1505 35.8265C65.1446 35.847 65.1436 35.8686 65.1477 35.8895C65.1518 35.9105 65.1609 35.9301 65.1741 35.9468C65.1873 35.9636 65.2044 35.9769 65.2238 35.9857C65.2497 35.9977 65.2788 36.0012 65.3068 35.9957C66.121 35.8819 66.9193 35.6742 67.6858 35.3767C67.8758 35.3027 68.0508 35.1977 68.2038 35.0657L68.3038 34.9807C68.7058 34.6377 68.9588 34.1847 68.9968 33.7367C68.9993 33.6999 68.993 33.663 68.9784 33.6291C68.9638 33.5951 68.9413 33.5652 68.9128 33.5417Z" fill="currentColor"/>
<path d="M73.0038 17.5697C73.0038 17.5697 73.1008 20.6077 73.0038 21.6147C72.9507 22.1694 72.8438 22.7177 72.6848 23.2517C72.6031 23.4889 72.5007 23.7185 72.3788 23.9377C71.4888 25.7247 69.9958 27.2107 67.7888 28.4267C67.5848 28.5377 66.6848 28.8937 66.6808 28.8967C66.6456 29.0651 66.5988 29.2308 66.5408 29.3927L66.4808 29.5737C66.3946 29.8494 66.2646 30.1094 66.0958 30.3437C66.0794 30.3658 66.0703 30.3924 66.0695 30.4199C66.0688 30.4474 66.0766 30.4745 66.0918 30.4974C66.1069 30.5203 66.1288 30.538 66.1544 30.5481C66.18 30.5582 66.208 30.5601 66.2348 30.5537C66.5138 30.4987 66.7848 30.4117 67.0428 30.2937C67.1043 30.267 67.1706 30.2528 67.2376 30.2518C67.3047 30.2508 67.3713 30.2632 67.4336 30.2881C67.4959 30.313 67.5527 30.35 67.6006 30.397C67.6485 30.4439 67.6866 30.4999 67.7128 30.5617C67.7466 30.6443 67.7573 30.7345 67.7438 30.8227C67.6588 31.3607 67.3178 31.9257 66.7928 32.4247C66.7691 32.4475 66.752 32.4762 66.743 32.5078C66.734 32.5395 66.7336 32.5729 66.7418 32.6047C66.75 32.6368 66.7667 32.666 66.7901 32.6894C66.8135 32.7128 66.8428 32.7295 66.8748 32.7377C67.3408 32.8537 67.8248 32.8857 68.3018 32.8317C68.5398 32.8077 68.7758 32.7647 69.0068 32.7017C69.164 32.6595 69.3312 32.6751 69.4779 32.7455C69.6247 32.816 69.7413 32.9367 69.8068 33.0857C69.8484 33.1835 69.8655 33.2899 69.8568 33.3957C69.8328 33.6587 69.7578 33.9147 69.6368 34.1497C69.6329 34.1576 69.6309 34.1662 69.631 34.175C69.6312 34.1838 69.6335 34.1924 69.6377 34.2001C69.642 34.2077 69.648 34.2143 69.6553 34.2191C69.6627 34.2239 69.6711 34.2269 69.6798 34.2277C69.6916 34.2291 69.7035 34.2267 69.7138 34.2207C69.8978 34.1107 70.0838 34.0017 70.2638 33.8967C70.8068 33.5807 71.3168 33.2807 71.7878 32.9287C74.6818 30.7637 76.2728 27.8537 76.2728 24.7337C76.2728 22.1057 75.1168 19.5927 73.0038 17.5697Z" fill="currentColor"/>
</svg>
